<?xml version="1.0" encoding="utf-8"?>
<!-- Generator: Adobe Illustrator 16.0.0, SVG Export Plug-In . SVG Version: 6.00 Build 0)  -->
<!DOCTYPE svg PUBLIC "-//W3C//DTD SVG 1.1//EN" "http://www.w3.org/Graphics/SVG/1.1/DTD/svg11.dtd">
<svg version="1.1" id="Capa_1" xmlns="http://www.w3.org/2000/svg" xmlns:xlink="http://www.w3.org/1999/xlink" x="0px" y="0px"
	 width="18px" height="20px" viewBox="257.667 257.167 18 20" style="enable-background:new 257.667 257.167 18 20;"
	 xml:space="preserve">
<g>
	<path style="fill:#888888;" d="M272.467,269.529c-0.239-0.236-0.771-0.362-1.581-0.373c-0.548-0.006-1.208,0.043-1.901,0.14
		c-0.311-0.179-0.631-0.374-0.883-0.609c-0.676-0.631-1.24-1.508-1.592-2.471c0.023-0.09,0.042-0.169,0.061-0.25
		c0,0,0.381-2.164,0.28-2.895c-0.014-0.101-0.022-0.129-0.049-0.208l-0.033-0.085c-0.104-0.239-0.307-0.492-0.625-0.479
		l-0.187-0.006h-0.005c-0.355,0-0.644,0.182-0.72,0.453c-0.231,0.852,0.007,2.125,0.439,3.775l-0.11,0.269
		c-0.309,0.753-0.697,1.513-1.039,2.183l-0.044,0.087c-0.359,0.704-0.686,1.302-0.982,1.808l-0.305,0.161
		c-0.022,0.012-0.546,0.289-0.668,0.363c-1.042,0.622-1.732,1.327-1.846,1.888c-0.037,0.179-0.01,0.407,0.176,0.514l0.295,0.148
		c0.128,0.064,0.263,0.097,0.402,0.097c0.742,0,1.603-0.924,2.79-2.994c1.37-0.446,2.93-0.817,4.296-1.021
		c1.042,0.587,2.323,0.994,3.132,0.994c0.144,0,0.268-0.014,0.368-0.04c0.154-0.042,0.285-0.13,0.365-0.25
		c0.157-0.236,0.188-0.562,0.146-0.895C272.632,269.734,272.553,269.612,272.467,269.529z M261.387,273.476
		c0.136-0.37,0.671-1.102,1.463-1.75c0.05-0.041,0.172-0.155,0.285-0.262C262.306,272.785,261.751,273.311,261.387,273.476z
		 M266.077,262.677c0.238,0,0.374,0.601,0.385,1.165s-0.121,0.959-0.284,1.251c-0.135-0.433-0.201-1.116-0.201-1.563
		C265.977,263.53,265.967,262.677,266.077,262.677z M264.678,270.373c0.166-0.298,0.339-0.611,0.516-0.943
		c0.43-0.814,0.702-1.452,0.905-1.976c0.403,0.733,0.904,1.356,1.494,1.855c0.073,0.062,0.151,0.125,0.233,0.187
		C266.626,269.733,265.59,270.022,264.678,270.373z M272.237,270.305c-0.072,0.045-0.282,0.072-0.416,0.072
		c-0.435,0-0.972-0.199-1.725-0.521c0.289-0.021,0.554-0.033,0.792-0.033c0.436,0,0.564-0.002,0.99,0.107
		C272.305,270.039,272.31,270.259,272.237,270.305z M273.547,262.672l-2.512-2.511c-0.547-0.547-1.627-0.994-2.4-0.994h-8.438
		c-0.773,0-1.406,0.633-1.406,1.406v15.188c0,0.773,0.633,1.406,1.406,1.406h12.938c0.773,0,1.406-0.633,1.406-1.406v-10.688
		C274.542,264.299,274.094,263.219,273.547,262.672z M272.751,263.468c0.056,0.055,0.11,0.123,0.163,0.199h-2.873v-2.873
		c0.076,0.053,0.144,0.108,0.199,0.163L272.751,263.468z M273.417,275.76c0,0.152-0.129,0.281-0.281,0.281h-12.938
		c-0.152,0-0.281-0.129-0.281-0.281v-15.188c0-0.152,0.129-0.281,0.281-0.281h8.438c0.085,0,0.18,0.011,0.281,0.03v4.47h4.47
		c0.02,0.101,0.03,0.196,0.03,0.281V275.76z"/>
</g>
</svg>
